HIERARCHY
ROOT Hips
{
	OFFSET 0.000000 0.000000 0.000000
	CHANNELS 6 Xposition Yposition Zposition Xrotation Yrotation Zrotation
	JOINT LeftUpLeg_virtual
	{
		OFFSET 0.000000 0.000000 0.000000
		CHANNELS 3 Xrotation Yrotation Zrotation
		JOINT LeftUpLeg
		{
			OFFSET 10.205400 -3.823500 0.155100
			CHANNELS 3 Xrotation Yrotation Zrotation
			JOINT LeftLeg
			{
				OFFSET 0.708757 -12.982077 0.567790
				CHANNELS 3 Xrotation Yrotation Zrotation
				JOINT LeftFoot
				{
					OFFSET -0.708756 -10.717838 -2.184338
					CHANNELS 3 Xrotation Yrotation Zrotation
					JOINT LeftToeBase
					{
						OFFSET 0.108149 -7.191104 7.560241
						CHANNELS 3 Xrotation Yrotation Zrotation
						JOINT LeftToe_End
						{
							OFFSET 0.070230 0.081724 4.490308
							CHANNELS 3 Xrotation Yrotation Zrotation
							End Site
							{
								OFFSET 0 0 0
							}
						}
					}
				}
			}
		}
	}
	JOINT RightUpLeg_virtual
	{
		OFFSET 0.000000 0.000000 0.000000
		CHANNELS 3 Xrotation Yrotation Zrotation
		JOINT RightUpLeg
		{
			OFFSET -10.205400 -3.823500 0.005500
			CHANNELS 3 Xrotation Yrotation Zrotation
			JOINT RightLeg
			{
				OFFSET -0.708756 -12.982134 0.610632
				CHANNELS 3 Xrotation Yrotation Zrotation
				JOINT RightFoot
				{
					OFFSET 0.708754 -10.717769 -1.945823
					CHANNELS 3 Xrotation Yrotation Zrotation
					JOINT RightToeBase
					{
						OFFSET -0.108140 -7.191069 7.372968
						CHANNELS 3 Xrotation Yrotation Zrotation
						JOINT RightToe_End
						{
							OFFSET -0.070227 0.081735 4.479403
							CHANNELS 3 Xrotation Yrotation Zrotation
							End Site
							{
								OFFSET 0 0 0
							}
						}
					}
				}
			}
		}
	}
	JOINT Spine_virtual
	{
		OFFSET 0.000000 0.000000 0.000000
		CHANNELS 3 Xrotation Yrotation Zrotation
		JOINT Spine
		{
			OFFSET 0.000000 6.876099 0.125700
			CHANNELS 3 Xrotation Yrotation Zrotation
			JOINT Spine1
			{
				OFFSET 0.000000 5.730043 0.104720
				CHANNELS 3 Xrotation Yrotation Zrotation
				JOINT Spine1_split
				{
					OFFSET 0.000000 5.730043 0.104720
					CHANNELS 3 Xrotation Yrotation Zrotation
					JOINT Spine2
					{
						OFFSET 0.000000 5.730043 0.104720
						CHANNELS 3 Xrotation Yrotation Zrotation
						JOINT Neck_virtual
						{
							OFFSET 0.000000 0.000000 0.000000
							CHANNELS 3 Xrotation Yrotation Zrotation
							JOINT Neck
							{
								OFFSET 0.000000 10.314075 0.188496
								CHANNELS 3 Xrotation Yrotation Zrotation
								JOINT Head
								{
									OFFSET 0.000000 7.643700 -2.377400
									CHANNELS 3 Xrotation Yrotation Zrotation
									JOINT HeadTop_End
									{
										OFFSET 0.000000 43.788605 -13.619600
										CHANNELS 3 Xrotation Yrotation Zrotation
										End Site
										{
											OFFSET 0 0 0
										}
									}
								}
							}
						}
						JOINT LeftShoulder_virtual
						{
							OFFSET 0.000000 0.000000 0.000000
							CHANNELS 3 Xrotation Yrotation Zrotation
							JOINT LeftShoulder
							{
								OFFSET 2.196100 4.412489 0.087492
								CHANNELS 3 Xrotation Yrotation Zrotation
								JOINT LeftShoulder_split
								{
									OFFSET 2.196100 4.412489 0.087492
									CHANNELS 3 Xrotation Yrotation Zrotation
									JOINT LeftArm
									{
										OFFSET 8.771219 -2.981674 -0.026999
										CHANNELS 3 Xrotation Yrotation Zrotation
										JOINT LeftForeArm
										{
											OFFSET 8.512804 0.000000 -0.000000
											CHANNELS 3 Xrotation Yrotation Zrotation
											JOINT LeftHand
											{
												OFFSET 18.484802 0.000000 -0.000000
												CHANNELS 3 Xrotation Yrotation Zrotation
												End Site
												{
													OFFSET 0 0 0
												}
											}
										}
									}
								}
							}
						}
						JOINT RightShoulder_virtual
						{
							OFFSET 0.000000 0.000000 0.000000
							CHANNELS 3 Xrotation Yrotation Zrotation
							JOINT RightShoulder
							{
								OFFSET -2.196100 4.412496 0.070690
								CHANNELS 3 Xrotation Yrotation Zrotation
								JOINT RightShoulder_split
								{
									OFFSET -2.196100 4.412496 0.070690
									CHANNELS 3 Xrotation Yrotation Zrotation
									JOINT RightArm
									{
										OFFSET -8.771282 -2.981682 -0.094208
										CHANNELS 3 Xrotation Yrotation Zrotation
										JOINT RightForeArm
										{
											OFFSET -8.494598 0.000000 0.000000
											CHANNELS 3 Xrotation Yrotation Zrotation
											JOINT RightHand
											{
												OFFSET -18.483803 0.000000 0.000001
												CHANNELS 3 Xrotation Yrotation Zrotation
												End Site
												{
													OFFSET 0 0 0
												}
											}
										}
									}
								}
							}
						}
					}
				}
			}
		}
	}
}
MOTION
Frames: 4
Frame Time: 0.03333333
0.159216 26.083664 0.272629 0.000000 0.000000 0.000000 11.642963 6.513148 -1.017265 -54.025280 1.819214 3.692088 77.312209 7.193638 0.244769 -37.618162 9.197363 -8.223538 -3.082134 -0.090131 0.931063 0.000000 0.000000 0.000000 11.985966 6.101790 -0.900764 -49.624828 -12.010197 -5.635927 79.542361 -7.720529 -7.015951 -41.515061 -10.876518 5.060217 3.446958 1.359158 -1.204459 0.000000 0.000000 0.000000 12.074420 3.348743 -0.724857 9.029593 1.134743 1.428229 8.893464 1.907601 -0.418747 0.894263 -0.936406 0.447324 0.000000 0.000000 0.000000 9.127626 0.832461 0.146363 -10.401617 -1.244044 5.870565 -25.705263 1.634898 -7.634301 0.000000 0.000000 0.000000 9.306969 0.519362 0.014229 3.331784 -24.501150 3.689316 -2.691174 0.348339 -3.325866 -62.523121 -24.812858 -64.919739 177.667564 -72.357767 175.962530 0.000000 0.000000 0.000000 8.393275 0.616043 0.261070 -0.018361 12.121887 10.793925 0.669121 7.064911 0.367487 -62.866045 31.358249 50.665011 -178.976447 69.988061 178.325748 0.000000 0.000000 0.000000 
0.159142 26.085449 0.282494 0.000000 0.000000 0.000000 11.652158 6.510286 -1.027502 -54.034535 1.815468 3.708064 77.309477 7.201698 0.235903 -37.622806 9.200325 -8.223571 -3.071560 -0.089160 0.925000 0.000000 0.000000 0.000000 11.994965 6.097890 -0.910723 -49.608029 -12.008256 -5.614707 79.531973 -7.722599 -7.017585 -41.518913 -10.876280 5.069975 3.432418 1.361931 -1.209704 0.000000 0.000000 0.000000 12.082724 3.342875 -0.735882 9.025691 1.138858 1.420052 8.889673 1.910603 -0.427150 0.903277 -0.919317 0.425882 0.000000 0.000000 0.000000 9.124694 0.836834 0.137452 -10.385527 -1.258528 5.892540 -25.698631 1.626024 -7.634173 0.000000 0.000000 0.000000 9.303907 0.525388 0.012671 3.336392 -24.497910 3.696828 -2.659055 0.328001 -3.336383 -62.614011 -24.853375 -65.003764 177.693723 -72.248484 175.986313 0.000000 0.000000 0.000000 8.386193 0.617540 0.254239 -0.021984 12.105523 10.806587 0.650589 7.107734 0.384558 -62.920358 31.346829 50.723990 -178.977908 69.857563 178.311555 0.000000 0.000000 0.000000 
0.161879 26.087242 0.291798 0.000000 0.000000 0.000000 11.666679 6.501424 -1.046253 -54.049671 1.806609 3.736110 77.317154 7.205271 0.226549 -37.638133 9.201380 -8.223748 -3.061193 -0.088298 0.917070 0.000000 0.000000 0.000000 12.008831 6.092658 -0.930905 -49.588362 -12.019282 -5.587576 79.509474 -7.723235 -7.021224 -41.516359 -10.871341 5.085148 3.427107 1.365681 -1.220207 0.000000 0.000000 0.000000 12.094477 3.321800 -0.752009 9.030219 1.154901 1.407784 8.870439 1.928739 -0.436995 0.910385 -0.903257 0.411898 0.000000 0.000000 0.000000 9.107461 0.855558 0.123808 -10.373853 -1.284372 5.940052 -25.697111 1.594766 -7.624476 0.000000 0.000000 0.000000 9.280490 0.546625 0.009424 3.339510 -24.491363 3.704704 -2.641466 0.314152 -3.343424 -62.715125 -24.940533 -65.121885 177.684434 -72.137951 175.971204 0.000000 0.000000 0.000000 8.365148 0.633958 0.243228 -0.027576 12.084931 10.845855 0.659835 7.125635 0.395912 -63.005702 31.297040 50.787340 -178.953893 69.707531 178.267978 0.000000 0.000000 0.000000 
0.167605 26.088202 0.299061 0.000000 0.000000 0.000000 11.681529 6.488872 -1.066245 -54.066429 1.797156 3.765282 77.334755 7.203603 0.219260 -37.657521 9.199293 -8.223936 -3.055877 -0.088323 0.911672 0.000000 0.000000 0.000000 12.023661 6.084981 -0.953413 -49.575227 -12.037410 -5.566468 79.483553 -7.721459 -7.025880 -41.504713 -10.865324 5.104643 3.429241 1.370104 -1.232435 0.000000 0.000000 0.000000 12.106378 3.290212 -0.765950 9.041201 1.178681 1.393370 8.841137 1.956925 -0.446275 0.907353 -0.884373 0.407792 0.000000 0.000000 0.000000 9.079707 0.884459 0.108746 -10.373421 -1.314469 6.000792 -25.710367 1.550800 -7.610316 0.000000 0.000000 0.000000 9.244897 0.576557 0.003070 3.340721 -24.487951 3.709249 -2.643985 0.330862 -3.348702 -62.790346 -25.033704 -65.219298 177.647715 -72.090625 175.933529 0.000000 0.000000 0.000000 8.334435 0.661310 0.231195 -0.034075 12.062386 10.902286 0.685678 7.117633 0.404746 -63.089153 31.228513 50.822417 -178.922447 69.602455 178.217121 0.000000 0.000000 0.000000 
